<?xml version="1.0" encoding="UTF-8"?>
<svg id="uuid-78575f3b-d896-45c5-b2d3-85fb8255c203" data-name="Capa 2" xmlns="http://www.w3.org/2000/svg" viewBox="0 0 328.43 70.88">
  <g id="uuid-76694baa-0d0c-43de-97b8-b22b4ab5eeaf" data-name="Capa 1">
    <g>
      <path d="M17.33,8.12c-.44-.82-1.08-1.44-1.91-1.87-.83-.43-1.8-.65-2.92-.65-1.94,0-3.49.64-4.66,1.91-1.17,1.27-1.75,2.97-1.75,5.09,0,2.26.61,4.03,1.84,5.3,1.23,1.27,2.91,1.91,5.06,1.91,1.47,0,2.71-.37,3.73-1.12,1.02-.75,1.76-1.82,2.22-3.22h-7.59v-4.41h13.02v5.56c-.44,1.49-1.2,2.88-2.26,4.17-1.06,1.28-2.41,2.32-4.04,3.11-1.63.79-3.48,1.19-5.53,1.19-2.43,0-4.59-.53-6.49-1.59-1.9-1.06-3.38-2.54-4.45-4.43-1.06-1.89-1.59-4.05-1.59-6.47s.53-4.59,1.59-6.49c1.06-1.9,2.54-3.38,4.43-4.44C7.91.6,10.07.07,12.5.07c2.94,0,5.42.71,7.44,2.14,2.02,1.42,3.35,3.4,4.01,5.92h-6.61Z" fill="#575756" stroke-width="0"/>
      <path d="M32.95,23.55c-1.92-1.07-3.45-2.57-4.58-4.5-1.13-1.93-1.7-4.09-1.7-6.49s.57-4.56,1.7-6.48c1.13-1.91,2.66-3.41,4.58-4.48,1.92-1.07,4.04-1.61,6.35-1.61s4.43.54,6.35,1.61c1.92,1.07,3.44,2.57,4.55,4.48,1.11,1.91,1.66,4.07,1.66,6.48s-.56,4.57-1.68,6.49c-1.12,1.92-2.64,3.42-4.55,4.5-1.91,1.07-4.03,1.61-6.33,1.61s-4.43-.54-6.35-1.61ZM44.01,17.75c1.18-1.31,1.77-3.03,1.77-5.18s-.59-3.9-1.77-5.2c-1.18-1.29-2.75-1.94-4.71-1.94s-3.56.64-4.74,1.93c-1.18,1.28-1.77,3.02-1.77,5.21s.59,3.9,1.77,5.2c1.18,1.3,2.76,1.94,4.74,1.94s3.53-.65,4.71-1.96Z" fill="#575756" stroke-width="0"/>
      <path d="M73.5,14.44c.86,1.11,1.29,2.37,1.29,3.8,0,2.05-.72,3.68-2.15,4.88-1.43,1.2-3.44,1.8-6,1.8h-11.45V.35h11.06c2.5,0,4.45.57,5.86,1.71,1.41,1.14,2.12,2.69,2.12,4.65,0,1.45-.38,2.65-1.14,3.6-.76.96-1.77,1.62-3.03,2,1.42.3,2.57,1.01,3.43,2.12ZM61.18,10.29h3.92c.98,0,1.73-.22,2.26-.65.53-.43.79-1.07.79-1.91s-.26-1.48-.79-1.92c-.52-.44-1.28-.67-2.26-.67h-3.92v5.15ZM67.92,19.41c.55-.45.82-1.11.82-1.98s-.29-1.54-.86-2.03c-.57-.49-1.36-.73-2.36-.73h-4.34v5.42h4.41c1,0,1.78-.23,2.33-.68Z" fill="#575756" stroke-width="0"/>
      <path d="M84.24.35v24.57h-5.99V.35h5.99Z" fill="#575756" stroke-width="0"/>
      <path d="M94.57,5.15v4.97h8.01v4.62h-8.01v5.39h9.06v4.79h-15.05V.35h15.05v4.79h-9.06Z" fill="#575756" stroke-width="0"/>
      <path d="M120.05,24.92l-5.11-9.27h-1.43v9.27h-5.99V.35h10.04c1.94,0,3.59.34,4.95,1.01,1.36.68,2.38,1.6,3.06,2.78.68,1.18,1.01,2.49,1.01,3.94,0,1.63-.46,3.09-1.38,4.38-.92,1.28-2.28,2.19-4.08,2.73l5.67,9.73h-6.75ZM113.5,11.41h3.71c1.1,0,1.92-.27,2.47-.81.55-.54.82-1.29.82-2.27s-.27-1.67-.82-2.21c-.55-.54-1.37-.81-2.47-.81h-3.71v6.09Z" fill="#575756" stroke-width="0"/>
      <path d="M152.32,24.92h-5.99l-10.01-15.15v15.15h-5.99V.35h5.99l10.01,15.22V.35h5.99v24.57Z" fill="#575756" stroke-width="0"/>
      <path d="M161.93,23.55c-1.92-1.07-3.45-2.57-4.58-4.5-1.13-1.93-1.7-4.09-1.7-6.49s.57-4.56,1.7-6.48c1.13-1.91,2.66-3.41,4.58-4.48,1.92-1.07,4.04-1.61,6.35-1.61s4.43.54,6.35,1.61c1.92,1.07,3.44,2.57,4.55,4.48,1.11,1.91,1.66,4.07,1.66,6.48s-.56,4.57-1.68,6.49c-1.12,1.92-2.64,3.42-4.55,4.5-1.91,1.07-4.03,1.61-6.33,1.61s-4.43-.54-6.35-1.61ZM172.99,17.75c1.18-1.31,1.77-3.03,1.77-5.18s-.59-3.9-1.77-5.2c-1.18-1.29-2.75-1.94-4.71-1.94s-3.56.64-4.74,1.93c-1.18,1.28-1.77,3.02-1.77,5.21s.59,3.9,1.77,5.2c1.18,1.3,2.76,1.94,4.74,1.94s3.53-.65,4.71-1.96Z" fill="#575756" stroke-width="0"/>
      <path d="M207.58,1.89c1.94,1.03,3.44,2.47,4.5,4.32s1.59,4,1.59,6.42-.53,4.54-1.59,6.41-2.57,3.31-4.51,4.34c-1.95,1.03-4.21,1.54-6.77,1.54h-9.21V.35h9.21c2.59,0,4.85.51,6.79,1.54ZM205.69,17.88c1.26-1.24,1.89-2.99,1.89-5.25s-.63-4.02-1.89-5.28c-1.26-1.26-3.02-1.89-5.29-1.89h-2.83v14.28h2.83c2.26,0,4.02-.62,5.29-1.85Z" fill="#575756" stroke-width="0"/>
      <path d="M223.02,5.15v4.97h8.01v4.62h-8.01v5.39h9.06v4.79h-15.05V.35h15.05v4.79h-9.06Z" fill="#575756" stroke-width="0"/>
      <path d="M241.95,20.3h7.84v4.62h-13.83V.35h5.99v19.95Z" fill="#575756" stroke-width="0"/>
      <path d="M7,50.86v4.97h8.01v4.62H7v5.39h9.06v4.79H1.01v-24.57h15.05v4.79H7Z" fill="#575756" stroke-width="0"/>
      <path d="M24.01,70c-1.42-.58-2.56-1.45-3.41-2.59s-1.3-2.52-1.35-4.13h6.37c.09.91.41,1.6.95,2.08.54.48,1.24.72,2.1.72s1.59-.2,2.1-.61c.51-.41.77-.97.77-1.7,0-.61-.2-1.11-.61-1.5-.41-.4-.91-.72-1.5-.98s-1.44-.55-2.54-.88c-1.59-.49-2.88-.98-3.88-1.47-1-.49-1.87-1.21-2.59-2.17-.72-.96-1.08-2.21-1.08-3.75,0-2.29.83-4.08,2.49-5.37,1.66-1.29,3.81-1.94,6.47-1.94s4.89.65,6.54,1.94c1.66,1.29,2.54,3.1,2.66,5.41h-6.47c-.05-.79-.34-1.42-.88-1.87-.54-.46-1.23-.68-2.07-.68-.72,0-1.31.19-1.75.58-.44.39-.67.94-.67,1.66,0,.79.37,1.41,1.12,1.85.75.44,1.91.92,3.5,1.44,1.59.54,2.88,1.05,3.87,1.54.99.49,1.85,1.2,2.57,2.13.72.93,1.08,2.13,1.08,3.6s-.36,2.67-1.07,3.82c-.71,1.14-1.74,2.05-3.1,2.73-1.35.68-2.95,1.01-4.8,1.01s-3.41-.29-4.83-.88Z" fill="#575756" stroke-width="0"/>
      <path d="M59.15,46.06v4.79h-6.51v19.78h-5.99v-19.78h-6.51v-4.79h19Z" fill="#575756" stroke-width="0"/>
      <path d="M77.45,66.29h-9.17l-1.47,4.34h-6.27l8.89-24.57h6.93l8.89,24.57h-6.33l-1.47-4.34ZM75.91,61.67l-3.04-9-3.01,9h6.05Z" fill="#575756" stroke-width="0"/>
      <path d="M103.95,47.6c1.94,1.03,3.44,2.47,4.5,4.32,1.06,1.85,1.59,4,1.59,6.42s-.53,4.54-1.59,6.41c-1.06,1.87-2.57,3.31-4.51,4.34-1.95,1.03-4.21,1.54-6.77,1.54h-9.21v-24.57h9.21c2.59,0,4.85.51,6.79,1.54ZM102.06,63.6c1.26-1.24,1.89-2.99,1.89-5.25s-.63-4.02-1.89-5.29c-1.26-1.26-3.02-1.89-5.29-1.89h-2.83v14.28h2.83c2.26,0,4.02-.62,5.29-1.86Z" fill="#575756" stroke-width="0"/>
      <path d="M118.67,69.27c-1.92-1.07-3.45-2.57-4.58-4.5s-1.7-4.09-1.7-6.49.57-4.56,1.7-6.47c1.13-1.91,2.66-3.41,4.58-4.48s4.04-1.61,6.35-1.61,4.43.54,6.35,1.61,3.44,2.57,4.55,4.48c1.11,1.91,1.66,4.07,1.66,6.47s-.56,4.57-1.68,6.49-2.64,3.42-4.55,4.5c-1.91,1.07-4.03,1.61-6.33,1.61s-4.43-.54-6.35-1.61ZM129.73,63.46c1.18-1.31,1.77-3.03,1.77-5.18s-.59-3.9-1.77-5.2c-1.18-1.29-2.75-1.94-4.71-1.94s-3.56.64-4.74,1.92c-1.18,1.28-1.77,3.02-1.77,5.21s.59,3.9,1.77,5.2c1.18,1.29,2.76,1.94,4.74,1.94s3.53-.65,4.71-1.96Z" fill="#575756" stroke-width="0"/>
      <path d="M164.32,47.6c1.94,1.03,3.44,2.47,4.5,4.32,1.06,1.85,1.59,4,1.59,6.42s-.53,4.54-1.59,6.41c-1.06,1.87-2.57,3.31-4.51,4.34-1.95,1.03-4.21,1.54-6.77,1.54h-9.21v-24.57h9.21c2.59,0,4.85.51,6.79,1.54ZM162.43,63.6c1.26-1.24,1.89-2.99,1.89-5.25s-.63-4.02-1.89-5.29c-1.26-1.26-3.02-1.89-5.29-1.89h-2.83v14.28h2.83c2.26,0,4.02-.62,5.29-1.86Z" fill="#575756" stroke-width="0"/>
      <path d="M179.76,50.86v4.97h8.01v4.62h-8.01v5.39h9.06v4.79h-15.05v-24.57h15.05v4.79h-9.06Z" fill="#575756" stroke-width="0"/>
      <path d="M217.87,57.87c-.65,1.18-1.66,2.13-3.01,2.85-1.35.72-3.03,1.08-5.04,1.08h-3.71v8.82h-5.99v-24.57h9.7c1.96,0,3.62.34,4.97,1.02,1.35.68,2.37,1.61,3.04,2.8.68,1.19,1.01,2.55,1.01,4.09,0,1.42-.33,2.72-.98,3.9ZM211.92,56.25c.56-.54.84-1.29.84-2.28s-.28-1.74-.84-2.27c-.56-.54-1.41-.81-2.55-.81h-3.25v6.16h3.25c1.14,0,2-.27,2.55-.8Z" fill="#575756" stroke-width="0"/>
      <path d="M227.85,46.06v14.7c0,1.47.36,2.6,1.08,3.4s1.79,1.19,3.19,1.19,2.47-.4,3.22-1.19c.75-.79,1.12-1.93,1.12-3.4v-14.7h5.98v14.67c0,2.19-.47,4.05-1.4,5.57-.93,1.52-2.19,2.66-3.76,3.43-1.58.77-3.33,1.16-5.27,1.16s-3.67-.38-5.2-1.14c-1.53-.76-2.74-1.9-3.62-3.43s-1.33-3.39-1.33-5.58v-14.67h5.98Z" fill="#575756" stroke-width="0"/>
      <path d="M252.63,50.86v4.97h8.01v4.62h-8.01v5.39h9.06v4.79h-15.05v-24.57h15.05v4.79h-9.06Z" fill="#575756" stroke-width="0"/>
      <path d="M283.88,60.15c.86,1.11,1.29,2.37,1.29,3.8,0,2.05-.72,3.68-2.15,4.88-1.43,1.2-3.44,1.8-6,1.8h-11.45v-24.57h11.06c2.5,0,4.45.57,5.86,1.71,1.41,1.14,2.12,2.7,2.12,4.66,0,1.45-.38,2.65-1.14,3.61s-1.77,1.62-3.03,2c1.42.3,2.57,1.01,3.43,2.12ZM271.56,56h3.92c.98,0,1.73-.22,2.26-.65.53-.43.79-1.07.79-1.91s-.26-1.48-.79-1.93c-.52-.44-1.28-.67-2.26-.67h-3.92v5.15ZM278.3,65.12c.55-.46.82-1.11.82-1.98s-.29-1.54-.86-2.03c-.57-.49-1.36-.74-2.36-.74h-4.34v5.42h4.41c1,0,1.78-.23,2.33-.68Z" fill="#575756" stroke-width="0"/>
      <path d="M294.62,66.01h7.84v4.62h-13.83v-24.57h5.99v19.95Z" fill="#575756" stroke-width="0"/>
      <path d="M320.63,66.29h-9.17l-1.47,4.34h-6.27l8.89-24.57h6.93l8.89,24.57h-6.33l-1.47-4.34ZM319.09,61.67l-3.04-9-3.01,9h6.05Z" fill="#575756" stroke-width="0"/>
    </g>
  </g>
</svg>