<svg xmlns="http://www.w3.org/2000/svg" id="uuid-2c2d13be-1dfe-4853-9591-5356d4101027" data-name="Capa 2" viewBox="0 0 476.05 316"><g id="uuid-98175e61-ffe6-4628-9404-6184cd6a5c44" data-name="Layer 1"><g><path d="m280.6,90.71c0,28.39-21.36,49.08-50.11,49.08h-20.24v37.39h-37.35V41.8h57.59c28.75,0,50.11,20.52,50.11,48.91m-38.3.04c0-9.61-6.47-16.41-16.27-16.41h-15.77v32.83h15.77c9.81,0,16.27-6.8,16.27-16.41" fill="#82235f"></path><path d="m273.44,124.73V41.79h38.08v82.24c0,13.22,8.52,21.76,20.96,21.76s20.96-8.54,20.96-21.76V41.79h38.08v82.94c0,33.28-24.56,55.75-59.05,55.75s-59.05-22.47-59.05-55.75" fill="#82235f"></path><path d="m258.38,240.96c12.75,6.04,20.74,18.13,20.74,32.88,0,21.9-18.91,38.48-43.88,38.48h-62.34v-135.14h61.09c23.98,0,41.48,14.62,41.48,34.59,0,12.07-6.77,22.94-17.1,29.19h0Zm-16.11,28.45c0-7.18-5.27-12.23-13.34-12.23h-20.24v24.58h20.24c8.07,0,13.34-5.05,13.34-12.34m-2.15-51.48c0-7.01-4.81-11.76-12.6-11.76h-18.83v23.53h18.83c7.79,0,12.6-4.75,12.6-11.77h0Z" fill="#111c4e"></path><polygon points="359.12 278.35 359.12 312.48 273.22 312.48 273.22 177.22 310.98 177.22 310.98 278.35 359.12 278.35" fill="#111c4e"></polygon><path d="m427.54,290.5h-47.96l-7.49,21.97h-39.95l53.15-135.29h36.44l54.32,135.29h-41.05l-7.46-21.97Zm-24.03-71.14l-14.82,41.88h29.77l-14.95-41.88Z" fill="#111c4e"></path><polygon points="192.67 .61 192.67 6.62 186.09 6.62 186.09 24.81 179.4 24.81 179.4 6.62 172.82 6.62 172.82 .61 192.67 .61" fill="#636569"></polygon><rect x="195.64" y=".61" width="6.75" height="24.21" fill="#636569"></rect><polygon points="213.71 19.02 222.84 19.02 222.84 24.82 207.07 24.82 207.07 .61 222.55 .61 222.55 6.38 213.71 6.38 213.71 9.94 221.66 9.94 221.66 15.41 213.71 15.41 213.71 19.02" fill="#636569"></polygon><polygon points="241.8 .61 248.24 .61 248.24 24.81 242.74 24.81 233.12 11.68 233.12 24.81 226.67 24.81 226.67 .61 232.49 .61 241.8 13.32 241.8 .61" fill="#636569"></polygon><polygon points="259.57 19.02 268.7 19.02 268.7 24.82 252.94 24.82 252.94 .61 268.42 .61 268.42 6.38 259.57 6.38 259.57 9.94 267.52 9.94 267.52 15.41 259.57 15.41 259.57 19.02" fill="#636569"></polygon><path d="m281.11,25.4c-2.98,0-5.35-.75-7.12-2.24-1.76-1.5-2.64-3.55-2.64-6.16h6.87c0,.82.27,1.45.82,1.9.55.44,1.22.67,2.03.67.74,0,1.38-.19,1.92-.56.54-.37.81-.87.81-1.5,0-.25-.04-.47-.13-.67-.08-.2-.24-.38-.46-.54-.23-.16-.43-.3-.61-.41-.19-.11-.48-.22-.9-.35-.41-.12-.73-.22-.95-.28-.23-.06-.6-.15-1.13-.28-1.94-.48-3.33-.93-4.19-1.35-2.17-1.05-3.41-2.68-3.71-4.91-.05-.37-.07-.77-.07-1.18,0-2.36.82-4.2,2.46-5.52,1.64-1.32,3.89-1.98,6.76-1.98s5.14.7,6.74,2.09c1.6,1.4,2.4,3.33,2.4,5.81h-6.7c0-.73-.24-1.29-.71-1.68-.47-.39-1.08-.58-1.81-.58-.64,0-1.19.14-1.65.43-.46.29-.68.7-.68,1.22,0,.23.04.43.13.61.08.18.23.35.45.5.21.15.42.28.61.39.19.11.48.22.87.34.39.12.7.21.94.28.24.07.61.16,1.11.29.53.13.94.24,1.23.32.29.08.7.2,1.23.37.53.17.95.32,1.27.46.32.14.7.33,1.16.58.45.25.82.5,1.1.74.28.25.57.55.89.92.32.37.56.75.73,1.15.18.4.32.86.44,1.39.12.53.18,1.09.18,1.69,0,2.57-.89,4.55-2.66,5.94-1.77,1.4-4.11,2.09-7.01,2.09" fill="#636569"></path><path d="m312.9,11.88h13.27c0,1.96-.31,3.78-.94,5.45-.62,1.68-1.49,3.11-2.6,4.3-1.11,1.19-2.46,2.12-4.04,2.79-1.59.67-3.31,1-5.18,1s-3.54-.32-5.13-.95c-1.6-.64-2.96-1.51-4.09-2.62-1.13-1.11-2.02-2.46-2.68-4.03-.65-1.58-.98-3.27-.98-5.08s.32-3.51.96-5.08c.64-1.58,1.52-2.92,2.65-4.04,1.12-1.12,2.49-2,4.08-2.64,1.59-.64,3.31-.96,5.14-.96,3.17,0,5.93.89,8.27,2.68,2.34,1.79,3.77,4.09,4.29,6.9h-6.99c-.44-1.02-1.16-1.84-2.15-2.44-.99-.6-2.11-.9-3.35-.9-1.81,0-3.28.59-4.4,1.79-1.12,1.19-1.68,2.76-1.68,4.69s.56,3.48,1.67,4.67c1.12,1.19,2.58,1.78,4.41,1.78,1.27,0,2.41-.28,3.41-.84,1-.56,1.69-1.31,2.08-2.25h-6.01v-4.2Z" fill="#636569"></path><path d="m344.41,24.82l-1.33-3.93h-8.58l-1.33,3.93h-7.14l9.5-24.21h6.52l9.71,24.21h-7.34Zm-2.95-9.15l-2.68-7.49-2.65,7.49h5.34Z" fill="#636569"></path><polygon points="369.21 .61 375.66 .61 375.66 24.81 370.16 24.81 360.54 11.68 360.54 24.81 354.09 24.81 354.09 .61 359.91 .61 369.21 13.32 369.21 .61" fill="#636569"></polygon><path d="m396.39,24.82l-1.33-3.93h-8.58l-1.33,3.93h-7.14l9.5-24.21h6.52l9.71,24.21h-7.34Zm-2.95-9.15l-2.68-7.49-2.65,7.49h5.34Z" fill="#636569"></path><path d="m413.64,25.4c-2.98,0-5.35-.75-7.12-2.24-1.76-1.5-2.64-3.55-2.64-6.16h6.87c0,.82.27,1.45.82,1.9.54.44,1.22.67,2.03.67.74,0,1.38-.19,1.92-.56.54-.37.81-.87.81-1.5,0-.25-.04-.47-.13-.67-.08-.2-.24-.38-.46-.54-.23-.16-.43-.3-.61-.41-.19-.11-.48-.22-.9-.35-.41-.12-.73-.22-.95-.28-.23-.06-.6-.15-1.13-.28-1.94-.48-3.33-.93-4.19-1.35-2.17-1.05-3.41-2.68-3.71-4.91-.05-.37-.07-.77-.07-1.18,0-2.36.82-4.2,2.46-5.52,1.64-1.32,3.89-1.98,6.76-1.98s5.14.7,6.74,2.09c1.6,1.4,2.4,3.33,2.4,5.81h-6.7c0-.73-.24-1.29-.71-1.68-.47-.39-1.08-.58-1.81-.58-.64,0-1.19.14-1.65.43-.46.29-.68.7-.68,1.22,0,.23.04.43.13.61.09.18.23.35.45.5.21.15.42.28.61.39.19.11.48.22.87.34.39.12.7.21.94.28.24.07.61.16,1.11.29.53.13.94.24,1.23.32.29.08.7.2,1.23.37.53.17.95.32,1.27.46.32.14.7.33,1.16.58.46.25.82.5,1.1.74.28.25.57.55.89.92.32.37.56.75.73,1.15.18.4.32.86.44,1.39.12.53.18,1.09.18,1.69,0,2.57-.89,4.55-2.66,5.94-1.77,1.4-4.11,2.09-7.01,2.09" fill="#636569"></path><path d="m444.09.61c2.41,0,4.56.51,6.47,1.54,1.9,1.02,3.38,2.46,4.44,4.3,1.06,1.84,1.59,3.92,1.59,6.26s-.53,4.41-1.59,6.25c-1.06,1.84-2.54,3.28-4.44,4.31-1.9,1.04-4.06,1.55-6.47,1.55h-9.79V.61h9.79Zm-.32,18.1c1.79,0,3.23-.55,4.33-1.66,1.1-1.11,1.65-2.56,1.65-4.35s-.55-3.25-1.65-4.34c-1.1-1.09-2.54-1.64-4.33-1.64h-2.79v11.99h2.79Z" fill="#636569"></path><polygon points="466.68 19.02 475.82 19.02 475.82 24.82 460.05 24.82 460.05 .61 475.53 .61 475.53 6.38 466.68 6.38 466.68 9.94 474.63 9.94 474.63 15.41 466.68 15.41 466.68 19.02" fill="#636569"></polygon><polygon points="476.05 144.82 476.05 177.18 385.3 177.18 385.3 41.76 476.01 41.76 476.01 74.01 422.36 74.01 422.36 93.95 466.75 93.95 466.75 124.55 422.36 124.55 422.36 144.82 476.05 144.82" fill="#82235f"></polygon><path d="m146.8,168.28s-69.58-38.47-55.29-100.89c10.73-46.87,78.45-35.8,63.48,13.59-10.27,33.86-11.4,70.89-8.19,87.3" fill="#ffc629"></path><path d="m121.38,164.45s-67.88,13.39-95.24-35.82c-21.25-38.23,35.86-68.53,50.55-26.03,8.35,24.15,32.04,54.67,44.68,61.85" fill="#ffc629"></path><path d="m146.8,185.22s-69.58,38.47-55.29,100.89c10.73,46.87,78.45,35.8,63.48-13.59-10.27-33.86-11.4-70.89-8.19-87.3" fill="#ffc629"></path><path d="m121.38,189.05s-67.88-13.39-95.24,35.82c-21.25,38.23,35.86,68.53,50.55,26.02,8.35-24.15,32.04-54.67,44.68-61.85" fill="#ffc629"></path><path d="m56.44,176.75s-16.06,10.34-27.17,22.77c-18.33,20.49-41.71-7.62-21.44-22.25.24-.18.49-.35.74-.51-.25-.17-.49-.34-.74-.52-20.27-14.64,3.11-42.75,21.44-22.26,11.11,12.43,27.17,22.77,27.17,22.77" fill="#ffc629"></path></g></g></svg>