<?xml version="1.0" encoding="UTF-8"?>
<svg id="uuid-b7c75f61-9d37-46e7-8075-9d2a775ccd70" data-name="Capa 2" xmlns="http://www.w3.org/2000/svg" viewBox="0 0 236.88 79.69">
  <g id="uuid-1f6b8e9f-efb7-425e-9b9c-a02e8ed0a934" data-name="Capa 1">
    <g>
      <path d="M18.79,4.99v4.54h-6.16v18.72h-5.67V9.53H.79v-4.54h17.99Z" fill="#575756" stroke-width="0"/>
      <path d="M27.3,4.99v23.26h-5.67V4.99h5.67Z" fill="#575756" stroke-width="0"/>
      <path d="M37.07,9.53v4.7h7.59v4.37h-7.59v5.1h8.58v4.54h-14.25V4.99h14.25v4.54h-8.58Z" fill="#575756" stroke-width="0"/>
      <path d="M70.14,28.24h-5.67l-9.48-14.35v14.35h-5.67V4.99h5.67l9.48,14.41V4.99h5.67v23.26Z" fill="#575756" stroke-width="0"/>
      <path d="M79.91,9.53v4.7h7.59v4.37h-7.59v5.1h8.58v4.54h-14.25V4.99h14.25v4.54h-8.58Z" fill="#575756" stroke-width="0"/>
      <path d="M96.01,27.65c-1.35-.55-2.42-1.37-3.23-2.45-.81-1.08-1.23-2.39-1.28-3.91h6.03c.09.86.39,1.52.89,1.97.51.45,1.17.68,1.99.68s1.5-.19,1.99-.58.73-.92.73-1.61c0-.57-.19-1.05-.58-1.42-.39-.38-.86-.68-1.42-.93-.56-.24-1.36-.52-2.4-.83-1.5-.46-2.73-.93-3.68-1.39-.95-.46-1.77-1.15-2.45-2.05-.69-.91-1.03-2.09-1.03-3.54,0-2.16.78-3.86,2.35-5.08,1.57-1.23,3.61-1.84,6.13-1.84s4.63.61,6.2,1.84c1.57,1.23,2.41,2.93,2.52,5.12h-6.13c-.04-.75-.32-1.34-.83-1.77-.51-.43-1.16-.65-1.95-.65-.69,0-1.24.18-1.66.55-.42.36-.63.89-.63,1.57,0,.75.35,1.34,1.06,1.76.71.42,1.81.87,3.31,1.36,1.5.51,2.72.99,3.66,1.46.94.46,1.75,1.14,2.44,2.02.68.88,1.03,2.02,1.03,3.41s-.34,2.53-1.01,3.61c-.67,1.08-1.65,1.94-2.93,2.58-1.28.64-2.79.96-4.54.96s-3.23-.28-4.57-.83Z" fill="#575756" stroke-width="0"/>
      <path d="M135.01,12.34c-.42-.77-1.02-1.36-1.81-1.77-.78-.41-1.71-.61-2.77-.61-1.83,0-3.3.6-4.41,1.81-1.1,1.2-1.66,2.81-1.66,4.82,0,2.14.58,3.82,1.74,5.02,1.16,1.2,2.75,1.81,4.79,1.81,1.39,0,2.57-.35,3.53-1.06.96-.71,1.66-1.72,2.1-3.05h-7.19v-4.17h12.32v5.27c-.42,1.41-1.13,2.73-2.14,3.94-1.01,1.21-2.28,2.2-3.83,2.95-1.55.75-3.29,1.13-5.23,1.13-2.3,0-4.35-.5-6.15-1.51-1.8-1-3.2-2.4-4.21-4.19s-1.51-3.83-1.51-6.13.5-4.35,1.51-6.15,2.4-3.2,4.19-4.21c1.79-1,3.83-1.51,6.13-1.51,2.78,0,5.13.67,7.04,2.02,1.91,1.35,3.17,3.21,3.79,5.6h-6.26Z" fill="#575756" stroke-width="0"/>
      <path d="M159.29,24.14h-8.68l-1.39,4.11h-5.93l8.42-23.26h6.56l8.42,23.26h-6l-1.39-4.11ZM157.83,19.76l-2.88-8.51-2.85,8.51h5.73Z" fill="#575756" stroke-width="0"/>
      <path d="M190.04,28.24h-5.67l-9.48-14.35v14.35h-5.67V4.99h5.67l9.48,14.41V4.99h5.67v23.26Z" fill="#575756" stroke-width="0"/>
      <path d="M208.62,24.14h-8.68l-1.39,4.11h-5.93l8.42-23.26h6.56l8.42,23.26h-6l-1.39-4.11ZM207.17,19.76l-2.88-8.51-2.85,8.51h5.73Z" fill="#575756" stroke-width="0"/>
      <path d="M222.41,27.65c-1.35-.55-2.42-1.37-3.23-2.45-.81-1.08-1.23-2.39-1.28-3.91h6.03c.09.86.39,1.52.89,1.97.51.45,1.17.68,1.99.68s1.5-.19,1.99-.58.73-.92.73-1.61c0-.57-.19-1.05-.58-1.42-.39-.38-.86-.68-1.42-.93-.56-.24-1.36-.52-2.4-.83-1.5-.46-2.73-.93-3.68-1.39-.95-.46-1.77-1.15-2.45-2.05-.69-.91-1.03-2.09-1.03-3.54,0-2.16.78-3.86,2.35-5.08,1.57-1.23,3.61-1.84,6.13-1.84s4.63.61,6.2,1.84c1.57,1.23,2.41,2.93,2.52,5.12h-6.13c-.04-.75-.32-1.34-.83-1.77-.51-.43-1.16-.65-1.95-.65-.69,0-1.24.18-1.66.55-.42.36-.63.89-.63,1.57,0,.75.35,1.34,1.06,1.76.71.42,1.81.87,3.31,1.36,1.5.51,2.72.99,3.66,1.46.94.46,1.75,1.14,2.44,2.02.68.88,1.03,2.02,1.03,3.41s-.34,2.53-1.01,3.61c-.67,1.08-1.65,1.94-2.93,2.58-1.28.64-2.79.96-4.54.96s-3.23-.28-4.57-.83Z" fill="#575756" stroke-width="0"/>
      <path d="M17.19,37.82c1.83.97,3.25,2.33,4.26,4.09,1,1.76,1.51,3.78,1.51,6.08s-.5,4.3-1.51,6.06c-1.01,1.77-2.43,3.14-4.27,4.11-1.84.97-3.98,1.46-6.41,1.46H2.05v-23.26h8.71c2.45,0,4.59.49,6.43,1.46ZM15.41,52.96c1.19-1.17,1.79-2.83,1.79-4.97s-.6-3.81-1.79-5c-1.19-1.19-2.86-1.79-5-1.79h-2.68v13.52h2.68c2.14,0,3.81-.58,5-1.76Z" fill="#575756" stroke-width="0"/>
      <path d="M31.81,40.9v4.7h7.59v4.37h-7.59v5.1h8.58v4.54h-14.25v-23.26h14.25v4.54h-8.58Z" fill="#575756" stroke-width="0"/>
      <path d="M67.88,47.54c-.62,1.12-1.57,2.02-2.85,2.7-1.28.68-2.87,1.03-4.77,1.03h-3.51v8.35h-5.67v-23.26h9.18c1.86,0,3.42.32,4.7.96,1.28.64,2.24,1.52,2.88,2.65.64,1.13.96,2.42.96,3.88,0,1.35-.31,2.58-.93,3.69ZM62.25,46c.53-.51.79-1.23.79-2.15s-.26-1.64-.79-2.15c-.53-.51-1.34-.76-2.42-.76h-3.08v5.83h3.08c1.08,0,1.89-.25,2.42-.76Z" fill="#575756" stroke-width="0"/>
      <path d="M77.33,36.36v13.92c0,1.39.34,2.46,1.03,3.21s1.69,1.13,3.02,1.13,2.34-.38,3.05-1.13c.71-.75,1.06-1.82,1.06-3.21v-13.92h5.67v13.88c0,2.08-.44,3.83-1.33,5.27-.88,1.44-2.07,2.52-3.56,3.25s-3.15,1.09-4.99,1.09-3.47-.36-4.92-1.08-2.59-1.8-3.43-3.25c-.84-1.45-1.26-3.21-1.26-5.28v-13.88h5.67Z" fill="#575756" stroke-width="0"/>
      <path d="M100.78,40.9v4.7h7.59v4.37h-7.59v5.1h8.58v4.54h-14.25v-23.26h14.25v4.54h-8.58Z" fill="#575756" stroke-width="0"/>
      <path d="M130.37,49.69c.82,1.05,1.23,2.25,1.23,3.59,0,1.94-.68,3.48-2.04,4.62s-3.25,1.71-5.68,1.71h-10.83v-23.26h10.47c2.36,0,4.21.54,5.55,1.62,1.34,1.08,2,2.55,2,4.41,0,1.37-.36,2.51-1.08,3.41-.72.91-1.67,1.54-2.87,1.89,1.35.29,2.43.96,3.25,2ZM118.71,45.77h3.71c.93,0,1.64-.2,2.14-.61.5-.41.75-1.01.75-1.81s-.25-1.4-.75-1.82c-.5-.42-1.21-.63-2.14-.63h-3.71v4.87ZM125.08,54.4c.52-.43.78-1.05.78-1.87s-.27-1.46-.81-1.92c-.54-.46-1.29-.7-2.24-.7h-4.11v5.13h4.17c.95,0,1.68-.21,2.2-.65Z" fill="#575756" stroke-width="0"/>
      <path d="M140.54,55.24h7.42v4.37h-13.09v-23.26h5.67v18.88Z" fill="#575756" stroke-width="0"/>
      <path d="M165.15,55.51h-8.68l-1.39,4.11h-5.93l8.42-23.26h6.56l8.42,23.26h-6l-1.39-4.11ZM163.7,51.14l-2.88-8.51-2.85,8.51h5.73Z" fill="#575756" stroke-width="0"/>
    </g>
  </g>
</svg>