<?xml version="1.0" encoding="UTF-8"?>
<svg id="uuid-93262557-4bd2-4948-844f-4c2c88199061" data-name="Capa 2" xmlns="http://www.w3.org/2000/svg" viewBox="0 0 1034.91 260.36">
  <g id="uuid-07a863cb-80d5-45a0-855d-4aab3d5f012f" data-name="Capa 1">
    <g>
      <path d="m351.19,229.11c3.1.23,5.84,2.48,4.66,5.62-.58,1.55-2.15,2.18-4.24,2.36-.63.05-9.94.42-31.63.54-6.5-.13-19.55.23-33.87.18-13.46-.05-28.77.36-40.24.37-34.41.03-68.79.96-103.11,3.53-25.31,1.89-50.61,4.1-75.68,8.18-18.46,3.01-36.86,6.39-55.28,9.62-2.47.43-4.94.82-7.46.85-1.45.01-2.62-.35-3.55-1.46-1.24-1.47-1.03-2.84.81-3.48,2.2-.77,4.53-1.14,6.76-1.83,31.08-9.6,62.91-15.57,95.11-19.72,45.13-5.82,90.23-7.71,135.72-8.02,28.91-.2,58.03-.17,86.95,1.43" fill="#fff"/>
      <g>
        <path d="m413.7,193.95v-31.58h11.03v33.16c0,13.75-7.95,19.55-20.91,19.55-14.32,0-20.41-6.3-20.41-19.84v-32.87h11.1v31.37c0,8.09,2.08,12.1,9.74,12.1s9.45-3.44,9.45-11.89Z" fill="#fff"/>
        <path d="m453.74,214.22v-23.63c0-4.01-1.58-5.73-4.94-5.73-2.94,0-5.87,1.65-7.3,2.94v26.43h-10.81v-37.31h9.6l.57,3.72c2.72-2.51,6.8-4.51,11.89-4.51,8.24,0,11.82,4.08,11.82,12.6v25.5h-10.81Z" fill="#fff"/>
        <path d="m507.17,178.41c1.29-2.79,3.37-5.66,6.88-5.66.93,0,1.93.22,3.01.64v7.09c-2.22-.22-4.08-.07-6.16.57,2.15,2.44,3.08,5.37,3.08,8.38,0,8.38-6.8,13.39-16.4,13.39-2.51,0-4.15-.22-6.23-.79-.65.64-1.36,1.36-1.36,2.29,0,1.07.64,1.79,3.37,1.93l10.6.64c7.95.5,12.53,3.22,12.53,10.74,0,9.17-8.52,12.68-19.48,12.68-13.68,0-17.98-3.51-17.98-8.67,0-3.51,2.65-5.94,6.73-6.73v-.29c-3.65-1.07-5.44-3.22-5.44-6.3,0-3.72,2.29-5.8,5.8-8.31-3.37-1.93-5.44-5.37-5.44-10.1,0-7.95,5.94-13.82,16.61-13.82,4.08,0,7.45.65,9.88,2.29Zm-5.8,38.24l-10.38-.65c-1.36,1-2.22,2.22-2.22,3.58,0,2.94,4.08,3.8,9.1,3.8s8.09-.72,8.09-3.8c0-1.43-.72-2.72-4.58-2.94Zm-3.65-32.94c-3.87,0-6.8,1.65-6.8,5.66,0,3.72,2.08,5.73,6.66,5.73,3.87,0,6.52-2.08,6.52-5.73,0-3.87-2.44-5.66-6.37-5.66Z" fill="#fff"/>
        <path d="m516.27,195.74c0-11.96,6.23-19.62,19.19-19.62s17.98,7.81,17.98,18.84c0,12.18-5.59,20.13-18.98,20.13s-18.19-8.16-18.19-19.34Zm25.93-.43c0-8.16-2.22-11.03-7.02-11.03s-7.59,3.08-7.59,11.17,2.08,11.6,7.38,11.6c4.73,0,7.23-3.01,7.23-11.75Z" fill="#fff"/>
        <path d="m557.24,160.15h10.6v20.12c3.01-2.94,6.66-4.15,11.24-4.15,7.52,0,13.75,4.87,13.75,18.62,0,14.61-6.59,20.34-15.54,20.34-4.58,0-7.95-1.72-10.24-4.01h-.22l-.5,3.15h-9.1v-54.07Zm17.26,46.26c4.8,0,6.95-3.72,6.95-11.39,0-5.94-1.43-10.24-6.59-10.24-2.58,0-5.3,1.43-6.88,2.87v16.33c1.36,1,3.8,2.44,6.52,2.44Z" fill="#fff"/>
        <path d="m602.3,172.04c-4.15,0-6.52-2.43-6.52-6.59s2.36-6.52,6.52-6.52,6.52,2.36,6.52,6.52-2.43,6.59-6.52,6.59Zm-5.44,42.18v-37.31h10.81v37.31h-10.81Z" fill="#fff"/>
        <path d="m611.32,195.67c0-13.46,8.24-19.55,18.26-19.55,11.32,0,16.04,6.88,16.04,17.26,0,1.22-.07,3.58-.21,4.87h-22.7c.22,6.16,2.79,8.45,7.52,8.45,3.87,0,5.37-2.15,6.09-5.3l9.1,2.22c-1.36,6.95-6.95,11.46-15.83,11.46-13.82,0-18.26-9.31-18.26-19.41Zm17.69-11.75c-3.08,0-6.09,2.01-6.16,7.45h11.6c0-5.37-1.93-7.45-5.44-7.45Z" fill="#fff"/>
        <path d="m660.1,190.08v24.13h-10.81v-37.31h9.24l.79,5.87c2.51-3.65,6.02-6.66,11.74-6.66.57,0,1.22,0,1.86.07v10.53c-4.87-.43-9.67.86-12.82,3.37Z" fill="#fff"/>
        <path d="m697.63,214.22v-23.63c0-4.01-1.58-5.73-4.94-5.73-2.94,0-5.87,1.65-7.3,2.94v26.43h-10.81v-37.31h9.6l.57,3.72c2.72-2.51,6.8-4.51,11.89-4.51,8.24,0,11.82,4.08,11.82,12.6v25.5h-10.81Z" fill="#fff"/>
        <path d="m711.81,195.74c0-11.96,6.23-19.62,19.19-19.62s17.98,7.81,17.98,18.84c0,12.18-5.59,20.13-18.98,20.13s-18.19-8.16-18.19-19.34Zm25.93-.43c0-8.16-2.22-11.03-7.02-11.03s-7.59,3.08-7.59,11.17,2.08,11.6,7.38,11.6c4.73,0,7.23-3.01,7.23-11.75Z" fill="#fff"/>
        <path d="m789.23,175.83c6.66,0,11.82,4.01,11.82,14.54,0,17.62-8.59,24.71-18.33,24.71-4.73,0-7.09-1.36-9.02-3.51l-2.51,17.83h-12.96l7.45-52.78h12.32l-.57,4.08.22.14c3.22-3.72,7.73-5.01,11.6-5.01Zm-6.59,10.31c-1.65,0-3.87.86-5.37,1.93l-2.08,14.9c.64.86,2.72,1.86,4.44,1.86,5.37,0,7.09-5.8,7.09-12.53,0-4.44-1.29-6.16-4.08-6.16Z" fill="#fff"/>
        <path d="m800.2,214.22l5.3-37.6h12.18l-.79,6.16c.07,0,.14.07.22.07,2.43-3.37,6.3-7.02,12.39-7.02.64,0,1.36.07,2.08.14l-1.72,12.39c-4.94-.29-9.53.79-13.03,3.15l-3.22,22.7h-13.39Z" fill="#fff"/>
        <path d="m828.2,198.89c0-15.61,10.24-23.06,21.84-23.06,10.31,0,13.97,4.8,13.97,10.67,0,5.3-2.87,8.31-6.95,10.24-4.87,2.29-11.39,2.86-14.75,3.15.07,2.65.57,5.59,4.58,5.59,3.08,0,4.65-1.93,5.59-4.65l10.53,2.65c-2.29,6.8-8.38,11.6-18.26,11.6-12.32,0-16.54-7.59-16.54-16.19Zm14.68-7.02c1.72-.07,3.08-.29,4.23-.57,3.08-.79,4.23-2.15,4.23-4.01,0-1.58-.86-2.65-2.51-2.65-2.65,0-5.3,1.79-5.94,7.23Z" fill="#fff"/>
        <path d="m898.03,186.43l-11.03,2.43c-.57-2.58-2.01-4.51-5.01-4.51-2.51,0-3.8,1-3.8,2.51,0,2,2.65,2.58,6.02,3.22,5.37,1.07,12.46,2.51,12.46,11.17,0,9.31-8.38,13.82-18.84,13.82-11.32,0-15.76-5.08-16.33-10.53l11.39-2.79c.43,2.08,1.43,4.8,5.94,4.8,3.15,0,4.58-1.22,4.58-2.79,0-1.86-2.43-2.58-5.87-3.37-5.44-1.29-12.39-2.86-12.39-11.53,0-9.17,8.59-13.03,17.47-13.03s14.11,3.8,15.4,10.6Z" fill="#fff"/>
        <path d="m897.53,198.89c0-15.61,10.24-23.06,21.84-23.06,10.31,0,13.97,4.8,13.97,10.67,0,5.3-2.87,8.31-6.95,10.24-4.87,2.29-11.39,2.86-14.75,3.15.07,2.65.57,5.59,4.58,5.59,3.08,0,4.65-1.93,5.59-4.65l10.53,2.65c-2.29,6.8-8.38,11.6-18.26,11.6-12.32,0-16.54-7.59-16.54-16.19Zm14.68-7.02c1.72-.07,3.08-.29,4.23-.57,3.08-.79,4.23-2.15,4.23-4.01,0-1.58-.86-2.65-2.51-2.65-2.65,0-5.3,1.79-5.94,7.23Z" fill="#fff"/>
        <path d="m932.13,214.22l5.3-37.6h12.46l-.65,4.73c.07,0,.07.07.14.07,2.72-2.86,6.37-5.59,12.68-5.59,7.09,0,10.74,4.01,9.53,12.6l-3.65,25.78h-13.39l3.29-23.42c.5-3.44-.79-4.23-2.72-4.23-2.36,0-4.87,1.58-6.09,2.65l-3.51,24.99h-13.39Z" fill="#fff"/>
        <path d="m987.28,215.08c-9.17,0-13.32-4.66-12.03-13.75l2.29-15.83h-5.51l1.22-8.88h5.51l1.58-10.88,13.68-2.01-1.86,12.89h9.74l-1.22,8.88h-9.74l-2.08,14.68c-.43,3.01.29,4.94,3.15,4.94,2.15,0,3.87-.57,5.44-1.36l1.36,8.52c-2.15,1.22-6.88,2.79-11.53,2.79Z" fill="#fff"/>
        <path d="m999.1,198.89c0-15.61,10.24-23.06,21.84-23.06,10.31,0,13.97,4.8,13.97,10.67,0,5.3-2.87,8.31-6.95,10.24-4.87,2.29-11.39,2.86-14.75,3.15.07,2.65.57,5.59,4.58,5.59,3.08,0,4.65-1.93,5.59-4.65l10.53,2.65c-2.29,6.8-8.38,11.6-18.26,11.6-12.32,0-16.54-7.59-16.54-16.19Zm14.68-7.02c1.72-.07,3.08-.29,4.23-.57,3.08-.79,4.23-2.15,4.23-4.01,0-1.58-.86-2.65-2.51-2.65-2.65,0-5.3,1.79-5.94,7.23Z" fill="#fff"/>
      </g>
      <g>
        <path d="m469.82,93.85c-3.2,5.7-8.03,10.26-14.49,13.67-6.46,3.42-14.35,5.13-23.68,5.13h-15.79v38.74h-31.91V36.63h47.69c9.22,0,17.06,1.63,23.52,4.88,6.46,3.26,11.31,7.76,14.57,13.51,3.25,5.75,4.88,12.37,4.88,19.86,0,6.95-1.6,13.27-4.8,18.96Zm-27.75-18.96c0-8.35-4.5-12.53-13.51-12.53h-12.7v24.91h12.7c9.01,0,13.51-4.12,13.51-12.37Z" fill="#fff"/>
        <path d="m526.87,36.63v66.58c0,6.19,1.44,10.96,4.31,14.32,2.87,3.37,7.24,5.05,13.1,5.05s10.28-1.71,13.27-5.13c2.98-3.42,4.48-8.17,4.48-14.24V36.63h31.91v66.58c0,10.53-2.22,19.51-6.67,26.94-4.45,7.43-10.5,13.02-18.15,16.77-7.65,3.74-16.14,5.62-25.48,5.62s-17.66-1.87-24.99-5.62c-7.33-3.74-13.08-9.3-17.25-16.69-4.18-7.38-6.27-16.38-6.27-27.02V36.63h31.74Z" fill="#fff"/>
        <path d="m651.56,62.19v18.72h36.63v24.25h-36.63v20.67h41.51v25.56h-73.41V36.63h73.41v25.56h-41.51Z" fill="#fff"/>
        <path d="m806.28,102.48c3.96,5.16,5.94,11.04,5.94,17.66,0,9.77-3.36,17.42-10.09,22.95-6.73,5.54-16.17,8.3-28.32,8.3h-56.81V36.63h55.02c11.72,0,20.92,2.6,27.59,7.81,6.67,5.21,10.01,12.54,10.01,21.98,0,6.73-1.77,12.35-5.29,16.85-3.53,4.51-8.22,7.57-14.08,9.2,6.73,1.52,12.07,4.86,16.03,10.01Zm-57.38-20.27h16.11c8.03,0,12.05-3.31,12.05-9.93s-4.02-10.25-12.05-10.25h-16.11v20.18Zm30.6,33.37c0-3.47-1.06-6.13-3.17-7.98-2.12-1.84-5.13-2.77-9.03-2.77h-18.4v20.84h18.56c8.03,0,12.05-3.36,12.05-10.09Z" fill="#fff"/>
        <path d="m866.27,126.97h35.65v24.42h-67.56V36.63h31.91v90.34Z" fill="#fff"/>
        <path d="m995.03,132.67h-40.7l-6.19,18.72h-33.53l41.84-114.76h36.79l41.67,114.76h-33.7l-6.19-18.72Zm-7.98-24.42l-12.37-37.11-12.21,37.11h24.58Z" fill="#fff"/>
      </g>
      <g>
        <polygon points="199.06 150.84 205.09 144.77 205.09 135.49 199.06 141.56 199.06 150.84" fill="#fff"/>
        <polygon points="199.06 165.53 205.09 159.46 205.09 150.21 199.06 156.28 199.06 165.53" fill="#fff"/>
        <polygon points="199.06 180.2 205.09 174.89 205.09 164.9 199.06 170.97 199.06 180.2" fill="#fff"/>
        <path d="m319.38,88.66l49.91-49.73c.88-.88.26-2.38-.98-2.38h-96.42c-.9,0-1.64-.1-2.19-.23l8.17-8.06c3.43-3.43,3.38-6.03,2.73-7.6-.68-1.63-2.58-3.58-7.82-3.58h-30.58c-.37,0-.73.15-.99.41l-35.83,36.03-24.43-24.23-.32.32c.26-2.03.41-4.08.41-6.13,0-8.63-2.83-17.41-7.21-22.37l-.68-.77-1.02-.09c-18.35-1.65-36.18,4.12-48.91,15.77-12.17,11.13-18.87,26.72-18.87,43.9,0,5.67.82,10.61,2.14,14.89L3.74,176.23v5.23s47.74,46.93,47.74,46.93c-2.26,2.47-4.81,5.21-7.18,7.76,3.01-.67,6.02-1.31,9.04-1.93,2.55-2.85,4.87-5.52,6.95-7.92,9.18-10.59,14.98-17.28,22.09-18.21.38-.05.75.08,1.05.32l9.06,9.24.1-.1.5.5c-2.3,3.52-4.97,6.99-7.89,10.49,2.46-.38,4.93-.76,7.4-1.11,3.19-4.18,6.05-8.37,8.44-12.74.18-.12.34-.28.46-.48,1.36-2.32,2.62-5.33,3.74-8.45,1.64-4.11,2.97-8.43,3.97-13.04.19-.07.37-.17.52-.33l42.53-42.53c.54-.54,1.42-.54,1.96,0l9.4,9.4c.56.56.55,1.46-.03,1.99-5.63,5.13-32.27,30.41-50.44,63.54,2.44-.29,4.88-.6,7.32-.87,14.87-26.04,34.74-45.84,47.49-58.52l4.13-4.12c.54-.54.54-1.42,0-1.96l-8.83-8.83,10.76-10.76c.45-.45.54-1.16.21-1.7l-10.59-17.67c-.47-.78-1.54-.91-2.18-.27l-16.96,16.96c-.55.55-.55,1.43,0,1.97l5.1,5.1-26.43,26.43c1.98-5.17,3.33-11.19,3.33-17.97,0-4.28-.67-8.14-1.61-11.46l53.03-52.51,7.13,7.79,13.78-13.08-5.49-10.2,3.88-4.02,26.8.52c1.73,0,2.58.27,2.94.43-.15.35-.56,1.02-1.48,1.94l-3.89,3.84c-8.63,2.65-16.77,7.02-23.61,12.85-12.94,11.01-20.07,26.16-20.07,42.64,0,10.32,2.65,18.98,7.87,25.8-8.26,7.36-17.77,20.68-25.02,44.76l-.98,3.17c-.3.97.52,1.93,1.53,1.78l7.84-1.21-3.61,10.58c-.42,0-.84.16-1.16.48l-3.63,3.63c2.99-.21,5.98-.43,8.97-.61l-.36-.36,4.59-13.47,3.95,3.64c-.72,3.36-1.93,6.27-3.18,9.26-.09.22-.18.44-.27.66,1.89-.11,3.79-.2,5.68-.3.74-1.81,1.47-3.65,2.07-5.64l5.81,5.22c2.38-.11,4.77-.19,7.15-.28l-15.63-14.41,22.37-3.46,18.05,17.1c2.45-.05,4.91-.09,7.36-.13l-1.48-1.41,69.27-69.27v-5.25s-20.1-19.63-20.1-19.63c7.5-8.49,14.73-15.69,20.64-21.57l4.12-4.11c.55-.54.55-1.43,0-1.98l-5.24-5.24h23.85c.37,0,.72-.15.98-.41Zm-167.59,48.37l8.64-8.64c.64-.64,1.72-.51,2.18.27l5.13,8.55c.33.55.24,1.25-.21,1.7l-6.93,6.93c-.55.55-1.43.55-1.97,0l-6.84-6.84c-.54-.55-.54-1.43,0-1.97Zm-25.11-117.19c11.27-10.31,26.93-15.56,43.23-14.57.43.02.83.23,1.07.58,2.96,4.23,4.89,11.06,4.89,17.65,0,15.36-8,26.48-12.9,31.83.24-3.6.37-7.28.39-11.04.51-.03,1.02-.07,1.54-.08.75-.02,1.36-.62,1.36-1.37v-2.39c0-.78-.65-1.42-1.42-1.4-5.53.15-10.67,1.19-15.36,3.06-.81.31-1.63.67-2.48,1.08-.05.03-.1.05-.16.08-.22.11-.43.21-.65.33-9.83,4.98-17.44,13.93-22.17,26.4-.27.72.11,1.54.84,1.8l2.24.8c.71.25,1.49-.11,1.76-.82,1.25-3.26,3.04-7.05,5.55-10.75v5.61l-.36,11.8c-2.82.55-7.68,2.01-11.91,5.83-1.03.85-2.07,1.79-3.13,2.82-4.67-5.32-9.54-14.02-9.54-27.16,0-15.71,6.11-29.95,17.19-40.1Zm13.19,37.14l.05-1.68c2.45-2.9,4.98-4.95,7.39-6.41,1.48-.83,3.06-1.59,4.75-2.23,2.49-.85,4.65-1.14,6.14-1.2-.12,9.57-.97,18.58-2.54,27.11-8.49-.89-14.44-8.05-15.79-15.6Zm14.76,20.68c-1.07,4.74-2.38,9.32-3.93,13.76l-11.13-11.13v-11.6c3.54,4.67,8.74,8.16,15.06,8.97ZM56.4,222.91s0,0,0,.01l-44.84-44.09,97.92-96.65c1.79,3.44,3.87,6.28,5.89,8.55l-22.82,22.82c-1.31,1.31-2.49,2.66-3.56,4.04-.54.55-.87.87-.9.9l-.2.22c-.19.24-3.32,4.29-4.72,10.4-.7,2.54-1.11,5.19-1.22,7.97-3.71,2.12-7.23,4.57-10.47,7.33-13.79,11.73-21.38,27.87-21.38,45.43,0,11.86,3.27,21.64,9.72,29.14-1.1,1.25-2.23,2.56-3.41,3.92Zm43.64-17.9c-1.22,2.92-2.61,5.74-4.18,8.5l-9.18-9.19v-8.05c3.2,4.19,7.78,7.59,13.4,8.64-.01.03-.02.06-.04.1Zm4.67-15.9c-.41,1.74-1.49,6.16-2.96,10.87-9.67-1.26-14.96-11.65-15.07-17.31,5.54-5.76,12.23-9.57,19.72-11.17-.13,6.42-.69,12.24-1.68,17.61Zm6.23-7.4c.36-3.47.56-7.12.62-10.96.56-.04,1.13-.08,1.7-.09.76-.03,1.36-.63,1.36-1.38v-2.36c0-.79-.65-1.44-1.44-1.41-18.34.59-33.87,12.43-41.95,32.01-.3.72.07,1.56.8,1.85l2.19.85c.71.28,1.5-.08,1.79-.78,1.57-3.79,3.41-7.25,5.5-10.35v13.93c-6.62.92-11.99,5.35-18.23,12.11-5.34-6.49-8.04-14.97-8.04-25.27,0-19,11.33-39.03,30.95-49.58l.15.08c.16-.07,15.34-6.88,28.64-7.56.47.02.91.28,1.15.69,1.82,3.13,5.21,10.15,5.21,19.07,0,13.12-5.65,23.09-10.4,29.15Zm12.74-46.74c-1.95-5.03-4.96-6.83-5.38-7.06l-1.24-.32c-.79,0-1.59.03-2.39.07-9.26.34-18.51,2.59-27,6.49.05-1.31.24-2.56.5-3.72.95-3.38,2.53-6.53,4.76-9.49,5.29-5.29,26.74-26.77,31.82-32.03.28-.29.57-.56.86-.82,3.2-2.6,6.19-3.95,10.35-4.14l12.75,12.76c-5.68,14.06-13.97,26.68-25.03,38.26Zm61.63-45.94l-6.35-6.93-4.48-.06,8.57-9.52,4.55.78,4.83,8.97-7.12,6.76Zm10.21-25.6l-.54.55s-.02.04-.04.05l-4.39,4.55-9.42-1.62-14.4,16,4.66,4.2h.64s-24.69,24.46-24.69,24.46c8-14.52,12.92-30.56,14.95-48.61.25-.06.49-.15.68-.35l3.47-3.47c5.91-6.37,10.15-13.74,12.49-21.53l21.2,21.02-4.6,4.76Zm6.14,131.14l-31.82,4.99c-1.02.15-1.85-.85-1.52-1.82,7.28-21.3,16.23-32.32,23.58-38.02.34-.26.53-.66.53-1.08v-3.93c0-1.11-1.25-1.79-2.16-1.16-.24.17-.49.34-.73.52-4.51-5.96-6.8-13.6-6.8-22.77,0-25.47,21.66-52.93,56.75-53.58,1.54,2.45,5.29,9.34,5.29,18.49,0,7.6-2.49,15.47-6.86,22.26l-1.11,1.11c-.16-.98-.33-1.88-.49-2.7.03-1.81.05-3.64.05-5.55,0-.37-.15-.73-.41-.99l-1.75-1.75c-.27-.27-.64-.42-1.02-.42-14.32.21-25.61,7.93-34.46,23.57-.38.67-.13,1.54.55,1.91l2.1,1.14c.66.36,1.49.11,1.86-.55,1.61-2.84,3.29-5.36,5.04-7.61v23.89c0,.37.15.72.4.98l14.15,14.16c-4.56,10.07-11.36,18.95-21.19,28.92Zm11.83-73.56c4.79-4.26,10.13-6.7,16.19-7.44.55-.07,1.06.23,1.32.68.06.26.13.55.21.88-.1,9.2-.53,17.17-1.42,24.3-8.9-1.21-15.84-8.93-16.3-18.42Zm15.55,23.53c-.97,5.8-2.31,11.04-4.09,15.93l-11.11-11.11c-.26-.26-.41-.61-.41-.98v-13.04c3.77,4.92,9.3,8.33,15.6,9.2Zm-21.94,53.83c-.56-.53-.57-1.41-.04-1.97.67-.7,1.33-1.39,1.98-2.08,12.73-13.62,19.95-25.7,23.74-41.91-1.94,15.46-7.57,33.5-20.98,50.4l-4.7-4.45Zm80.19-54.16l-45.24,45.28c1.09-2.26,2.44-4.41,3.83-6.62,3.1-4.96,6.31-10.08,6.31-16.51,0-2.47-1.06-6.79-2.03-10.2-.08-.29-.06-.59.04-.87,6.2-10.31,13.12-19.57,19.99-27.77l17.09,16.69Zm4.16-48.04c-10.81,10.74-25.93,25.81-39.35,45.21l.02-.06c-.21.31-.47.7-.75,1.12-1.7,2.49-3.36,5.07-4.98,7.7l-.03-.02-2.67,4.42c-.24.4-.27.88-.07,1.3l.42.9c.2.42.36.88.49,1.32,1.26,4.5,1.72,7.22,1.72,8.28,0,4.72-2.51,8.72-5.41,13.35-3.15,5.04-6.7,10.7-7.14,18.14l-13.2,13.21-5.33-5.05c17.79-22.26,22.41-46.19,23.09-62.64.25-6.15,0-11.69-.46-16.37l42.15-42.15c.55-.55,1.43-.55,1.98,0l10.42,10.42-.89.89Zm-42.43-6.72l18.19-.28-19.5,19.5c1.23-4.1,1.9-8.32,1.9-12.46,0-2.4-.23-4.66-.6-6.76Zm41.37-6.47c-.53.53-1.37.53-1.91.04l-6.57-6.57s-.04-.02-.06-.04l-.28-.28c-.54-.54-.54-1.42,0-1.97l7.89-7.89c.65-.65,1.74-.5,2.19.29l4.98,8.72c.31.54.22,1.23-.22,1.67l-6.02,6.02Zm25.85.93h-19.49l6.09-6.09c.44-.44.54-1.13.22-1.67l-10.27-18c-.45-.8-1.54-.94-2.19-.29l-16.31,16.31c-.54.54-.54,1.42,0,1.97l2.98,2.98-4.83,4.83-24.69.38c-1.99-6.32-4.88-10.25-5.06-10.49l-.73-.96h-1.2c-3.34,0-6.7.29-10.02.81,1.73-2.48,1.6-4.4,1.08-5.66-.68-1.63-2.58-3.58-7.77-3.58l-18.63-.36c-1.22-.02-1.82-1.5-.96-2.37l38.84-39.06c.26-.26.62-.41.99-.41h28.44c1.73,0,2.58.26,2.94.43-.15.35-.56,1.02-1.48,1.94l-9.11,8.99c-1.94,1.94-1.44,3.84-1.14,4.57,1.36,3.27,6.4,3.53,7.92,3.53h83.95c1.24,0,1.86,1.5.98,2.38l-39.57,39.42c-.26.26-.61.41-.98.41Z" fill="#fff"/>
      </g>
    </g>
  </g>
</svg>